<svg width="301" height="301" viewBox="0 0 301 301" fill="none" xmlns="http://www.w3.org/2000/svg">
<circle cx="150.591" cy="150.318" r="150" fill="black"/>
<path d="M190.591 70.3176C190.591 92.409 172.682 110.318 150.591 110.318C128.5 110.318 110.591 92.409 110.591 70.3176C110.591 48.2262 128.5 30.3176 150.591 30.3176C172.682 30.3176 190.591 48.2262 190.591 70.3176ZM130.591 70.3176C130.591 81.3633 139.545 90.3176 150.591 90.3176C161.637 90.3176 170.591 81.3633 170.591 70.3176C170.591 59.2719 161.637 50.3176 150.591 50.3176C139.545 50.3176 130.591 59.2719 130.591 70.3176Z" fill="white"/>
<circle cx="70.5909" cy="150.318" r="40" fill="white"/>
<path d="M190.591 230.318C190.591 252.409 172.682 270.318 150.591 270.318C128.5 270.318 110.591 252.409 110.591 230.318C110.591 208.226 128.5 190.318 150.591 190.318C172.682 190.318 190.591 208.226 190.591 230.318Z" fill="white"/>
<circle cx="230.591" cy="150.318" r="40" fill="white"/>
</svg>
